<svg width="70" height="70" viewBox="0 0 70 70" fill="none" xmlns="http://www.w3.org/2000/svg">
<path d="M30.5805 5.24805H17.322C16.7556 5.24805 16.2966 5.70701 16.2966 6.27344V25.3324C16.2966 25.8989 16.7556 26.3578 17.322 26.3578H30.5805C31.1469 26.3578 31.6058 25.8989 31.6058 25.3324V6.27344C31.6058 5.70701 31.1467 5.24805 30.5805 5.24805ZM29.5551 24.3071H18.3474V7.29883H29.5551V24.3071Z" fill="black"/>
<path d="M35.5525 11.9944H52.6779C53.2443 11.9944 53.7033 11.5355 53.7033 10.969V6.27344C53.7033 5.70701 53.2443 5.24805 52.6779 5.24805H35.5525C34.9861 5.24805 34.5271 5.70701 34.5271 6.27344V10.9692C34.5271 11.5355 34.9861 11.9944 35.5525 11.9944ZM36.5779 7.29883H51.6525V9.94379H36.5779V7.29883Z" fill="black"/>
<path d="M35.5525 16.9666H52.6779C53.2443 16.9666 53.7033 16.5076 53.7033 15.9412C53.7033 15.3747 53.2443 14.9158 52.6779 14.9158H35.5525C34.9861 14.9158 34.5271 15.3747 34.5271 15.9412C34.5271 16.5076 34.9861 16.9666 35.5525 16.9666Z" fill="black"/>
<path d="M35.5525 21.386H52.6779C53.2443 21.386 53.7033 20.927 53.7033 20.3606C53.7033 19.7942 53.2443 19.3352 52.6779 19.3352H35.5525C34.9861 19.3352 34.5271 19.7942 34.5271 20.3606C34.5271 20.927 34.9861 21.386 35.5525 21.386Z" fill="black"/>
<path d="M35.5525 26.3579H52.6779C53.2443 26.3579 53.7033 25.8989 53.7033 25.3325C53.7033 24.7661 53.2443 24.3071 52.6779 24.3071H35.5525C34.9861 24.3071 34.5271 24.7661 34.5271 25.3325C34.5271 25.8989 34.9861 26.3579 35.5525 26.3579Z" fill="black"/>
<path d="M26.2405 30.3042C26.2405 30.8706 26.6994 31.3296 27.2659 31.3296H52.6778C53.2442 31.3296 53.7032 30.8706 53.7032 30.3042C53.7032 29.7378 53.2442 29.2788 52.6778 29.2788H27.2659C26.6994 29.2788 26.2405 29.7379 26.2405 30.3042Z" fill="black"/>
<path d="M17.322 31.3296H22.2939C22.8604 31.3296 23.3193 30.8706 23.3193 30.3042C23.3193 29.7378 22.8604 29.2788 22.2939 29.2788H17.322C16.7556 29.2788 16.2966 29.7378 16.2966 30.3042C16.2966 30.8706 16.7557 31.3296 17.322 31.3296Z" fill="black"/>
<path d="M31.2077 41.2864H28.4399C27.8735 41.2864 27.4146 41.7453 27.4146 42.3118V51.8402C27.4146 52.113 27.5232 52.3744 27.7166 52.5669C27.9087 52.7582 28.1688 52.8656 28.4399 52.8656H28.4445C28.4447 52.8656 30.9896 52.8543 31.691 52.8543C33.6705 52.8543 35.2812 51.2439 35.2812 49.2642C35.2812 48.0818 34.7064 47.0316 33.822 46.377C34.2014 45.849 34.4256 45.2024 34.4256 44.5042C34.4256 42.73 32.982 41.2864 31.2077 41.2864ZM31.2077 43.3372C31.8512 43.3372 32.3748 43.8608 32.3748 44.5043C32.3748 45.1479 31.8512 45.6714 31.2077 45.6714C31.0003 45.6714 30.606 45.6726 30.1787 45.6741H29.4653V43.3372H31.2077ZM31.691 50.8036C31.2838 50.8036 30.2578 50.8073 29.4653 50.8106V47.7277C29.6976 47.7268 29.9459 47.7258 30.1841 47.725H31.691C32.5399 47.725 33.2304 48.4156 33.2304 49.2645C33.2304 50.1131 32.5399 50.8036 31.691 50.8036Z" fill="black"/>
<path d="M11.674 46.1893C10.4771 45.7478 9.36473 45.2663 9.05178 45.129C8.81075 44.9442 8.69481 44.6548 8.73965 44.3419C8.76836 44.1423 8.91083 43.6552 9.61383 43.4434C11.0447 43.0125 12.354 44.0521 12.3887 44.08C12.8223 44.4404 13.4657 44.3834 13.829 43.9513C14.1934 43.5178 14.1374 42.871 13.7039 42.5066C13.6167 42.4335 11.5406 40.7214 9.02239 41.4797C7.76936 41.8574 6.88329 42.8424 6.70979 44.0506C6.54751 45.1803 7.03723 46.2668 7.98729 46.8863C8.03254 46.9158 8.08012 46.9417 8.12948 46.9637C8.1843 46.9881 9.49174 47.5702 10.9643 48.1132C11.4213 48.2818 12.4678 48.7636 12.3194 49.5951C12.2123 50.1947 11.4995 50.815 10.4918 50.815C9.49872 50.815 8.54141 50.4129 7.93124 49.7395C7.55075 49.3196 6.90243 49.2882 6.48284 49.6682C6.06325 50.0485 6.03126 50.6969 6.41161 51.1166C7.40432 52.212 8.92956 52.866 10.492 52.866C12.4197 52.866 14.0374 51.642 14.3384 49.9558C14.5636 48.693 13.9821 47.0406 11.674 46.1893Z" fill="black"/>
<path d="M17.459 41.2864C16.8926 41.2864 16.4336 41.7453 16.4336 42.3118V48.8684C16.4336 50.2654 17.0774 51.3557 18.4018 52.2021C19.0891 52.6414 19.8654 52.8647 20.7089 52.8658H20.7155C21.4435 52.8658 22.1266 52.7077 22.7455 52.3959C24.6961 51.4135 25.1055 49.9318 25.1055 48.8616V42.3118C25.1055 41.7453 24.6466 41.2864 24.0801 41.2864C23.5137 41.2864 23.0547 41.7453 23.0547 42.3118V48.8616C23.0547 49.3656 22.9149 50.0145 21.823 50.5643C21.4929 50.7306 21.1202 50.8149 20.7154 50.8149C20.7141 50.8149 20.7128 50.8149 20.7117 50.8149C20.2586 50.8143 19.8643 50.7027 19.5061 50.4739C18.7805 50.0103 18.4845 49.5451 18.4845 48.8684V42.3118C18.4844 41.7455 18.0254 41.2864 17.459 41.2864Z" fill="black"/>
<path d="M69.9999 37.8232C69.9999 35.7343 68.3011 34.0348 66.2128 34.0348H58.9513V1.02539C58.9513 0.458965 58.4923 0 57.9259 0H12.074C11.5075 0 11.0486 0.458965 11.0486 1.02539V11.0596C11.0486 11.626 11.5075 12.085 12.074 12.085C12.6404 12.085 13.0994 11.626 13.0994 11.0596V2.05078H56.9004V34.0348H55.6929C55.1264 34.0348 54.6675 34.4937 54.6675 35.0602C54.6675 35.6266 55.1264 36.0855 55.6929 36.0855H66.2128C67.1703 36.0855 67.9492 36.8651 67.9492 37.8232V54.871L61.0202 52.4366C61.1407 52.2685 61.2125 52.063 61.2125 51.8403V43.3372H62.8288C63.3952 43.3372 63.8541 42.8783 63.8541 42.3119C63.8541 41.7454 63.3952 41.2865 62.8288 41.2865H57.5666C57.0002 41.2865 56.5412 41.7454 56.5412 42.3119C56.5412 42.8783 57.0002 43.3372 57.5666 43.3372H59.1617V51.7835L54.1865 50.0354V42.3117C54.1865 41.7453 53.7275 41.2863 53.1611 41.2863C52.5947 41.2863 52.1357 41.7453 52.1357 42.3117V49.3149L49.8026 48.4951C49.593 48.4214 49.3707 48.4215 49.166 48.4835L47.9803 42.2793C47.8679 41.7275 47.3966 41.32 46.8343 41.2884C46.2721 41.2571 45.7583 41.6088 45.5844 42.1444C45.5807 42.1561 45.577 42.1678 45.5738 42.1796L43.7103 48.7164L41.7786 42.169C41.775 42.1568 41.7712 42.1449 41.7672 42.1329C41.588 41.5989 41.0708 41.2517 40.5082 41.2897C39.9461 41.3273 39.4792 41.7401 39.3707 42.3049L37.6959 51.5839C37.5954 52.1411 37.9656 52.6745 38.5229 52.7751C39.0796 52.8753 39.6136 52.5055 39.7141 51.9481L40.7814 46.0355L42.5363 51.9837C42.5398 51.9961 42.5438 52.0082 42.5478 52.0203C42.718 52.5267 43.1899 52.8659 43.7238 52.8659H43.7302C44.2666 52.8631 44.7383 52.5186 44.9038 52.0085C44.9077 51.9967 44.9114 51.9848 44.9148 51.9728L46.6093 46.0288L47.7425 51.9586C47.8488 52.5149 48.387 52.8802 48.9421 52.7732C49.1394 52.7354 49.3118 52.6429 49.4484 52.5152L51.3987 58.0658H15.0513C14.4849 58.0658 14.0259 58.5248 14.0259 59.0912C14.0259 59.6576 14.4849 60.1166 15.0513 60.1166H52.119L55.3508 69.3145C55.4833 69.6916 55.8226 69.9572 56.2205 69.9952C56.2531 69.9984 56.2859 69.9999 56.3185 69.9999C56.6802 69.9999 57.0185 69.8085 57.2036 69.4918L61.7358 61.7358L64.5068 60.1165H66.2128C68.2842 60.1165 69.9715 58.4448 69.9987 56.369C69.9987 56.3686 69.9987 56.3682 69.9987 56.3678C69.9988 56.3512 69.9999 56.335 69.9999 56.3184V37.8232ZM60.4689 60.101C60.3167 60.19 60.19 60.3168 60.1009 60.4689L56.551 66.5439L51.1382 51.1383L66.5438 56.5511L60.4689 60.101Z" fill="black"/>
<path d="M10.265 58.0658H3.78711C2.82967 58.0658 2.05078 57.287 2.05078 56.3295V37.8233C2.05078 36.865 2.82967 36.0856 3.78711 36.0856H50.8983C51.4648 36.0856 51.9237 35.6266 51.9237 35.0602C51.9237 34.4937 51.4648 34.0348 50.8983 34.0348H13.0994V15.8501C13.0994 15.2837 12.6405 14.8247 12.074 14.8247C11.5076 14.8247 11.0487 15.2837 11.0487 15.8501V34.0348H3.78711C1.69887 34.0348 0 35.7343 0 37.8233V56.3295C0 58.4178 1.69887 60.1166 3.78711 60.1166H10.265C10.8314 60.1166 11.2904 59.6577 11.2904 59.0912C11.2904 58.5248 10.8314 58.0658 10.265 58.0658Z" fill="black"/>
</svg>
