<svg width="70" height="70" viewBox="0 0 70 70" fill="none" xmlns="http://www.w3.org/2000/svg">
<g clip-path="url(#clip0)">
<path d="M56.8078 60.9677L54.1941 53.1254C53.2807 50.3875 50.9503 48.3666 48.1097 47.8495L40.5644 46.4766V45.8917C41.8774 45.1296 43.02 44.1101 43.93 42.9032H46.2095C48.077 42.9032 49.5966 41.3835 49.5966 39.5161V25.9677C49.5966 17.8748 43.0121 11.2903 34.9192 11.2903C26.8263 11.2903 20.2418 17.8748 20.2418 25.9677V33.8709C20.2418 36.0477 21.7897 37.8688 23.8423 38.2933C24.4757 41.5382 26.5034 44.284 29.274 45.8917V46.4766L21.7276 47.8495C18.8881 48.3666 16.5566 50.3875 15.6444 53.1254L15.1928 54.4814L11.3473 50.6359C10.9069 50.1956 10.9069 49.4787 11.3473 49.0383L15.8069 44.5798L7.4363 36.2092L2.3963 41.2492C0.903723 42.7417 0.0817871 44.7266 0.0817871 46.8379C0.0817871 48.9492 0.903723 50.9329 2.3963 52.4254L17.6552 67.6843C19.1478 69.1769 21.1326 70 23.2439 70C25.3552 70 27.3389 69.1769 28.7965 67.7182L34.296 62.6793L32.581 60.9677H56.8078ZM47.3386 39.5161C47.3386 40.1393 46.8316 40.6451 46.2095 40.6451H45.26C45.5874 39.8988 45.8358 39.1119 45.9961 38.2933C46.4794 38.1929 46.9242 38.0009 47.3386 37.7593V39.5161ZM46.2095 35.8151V31.9267C46.8813 32.3185 47.3386 33.0388 47.3386 33.8709C47.3386 34.703 46.8813 35.4233 46.2095 35.8151ZM23.6289 35.8151C22.9571 35.4233 22.4999 34.703 22.4999 33.8709C22.4999 33.0388 22.9571 32.3185 23.6289 31.9267V35.8151ZM23.6289 28.2258V29.5151C23.2269 29.6201 22.8499 29.7782 22.4999 29.9825V25.9677C22.4999 19.1201 28.0716 13.5483 34.9192 13.5483C41.7668 13.5483 47.3386 19.1201 47.3386 25.9677V29.9825C46.9886 29.7782 46.6115 29.619 46.2095 29.5151V28.2258H45.0805C41.742 28.2258 38.6032 26.9251 36.2413 24.5643L34.9192 23.2422L33.5971 24.5643C31.2352 26.9251 28.0965 28.2258 24.7579 28.2258H23.6289ZM25.8869 36.129V30.4409C29.2774 30.1858 32.4387 28.7869 34.9192 26.4283C37.3997 28.7869 40.561 30.1869 43.9515 30.4409V36.129C43.9515 37.7751 43.5021 39.3151 42.7299 40.6451H34.9192V42.9032H40.8737C39.2818 44.3043 37.201 45.1612 34.9192 45.1612C29.939 45.1612 25.8869 41.1092 25.8869 36.129ZM38.3063 46.8988V46.9519L34.9192 50.339L31.5321 46.9519V46.8988C32.6024 47.2353 33.7394 47.4193 34.9192 47.4193C36.099 47.4193 37.236 47.2353 38.3063 46.8988ZM17.785 53.839C18.4365 51.8835 20.1018 50.4395 22.1307 50.0692L30.0226 48.6353L34.9192 53.5319L39.8147 48.6364L47.7055 50.0703C49.7344 50.4406 51.3997 51.8835 52.0512 53.8401L53.6758 58.7096H30.3229L25.9253 54.3121L21.0389 58.7322C20.6132 59.1601 19.8692 59.1601 19.4424 58.7322L16.9766 56.2664L17.785 53.839ZM7.43517 39.4021L12.6129 44.5798L11.3868 45.8059L6.20905 40.6282L7.43517 39.4021ZM27.2328 66.0901C26.167 67.1537 24.7489 67.7419 23.2416 67.7419C21.7344 67.7419 20.3163 67.1537 19.2494 66.0879L3.9905 50.8301C2.92469 49.7643 2.33759 48.3462 2.33759 46.839C2.33759 45.3306 2.92469 43.9125 3.9905 42.8467L4.61146 42.2258L9.78921 47.4035L9.74856 47.4441C8.42872 48.7651 8.42872 50.9137 9.74856 52.2346L17.8449 60.3309C18.485 60.97 19.3352 61.3233 20.2407 61.3233C21.1461 61.3233 21.9963 60.9711 22.5947 60.3704L22.6794 60.2948L27.8808 65.4962L27.2328 66.0901ZM29.5473 63.9675L24.3571 58.7774L25.8486 57.4293L31.0297 62.6104L29.5473 63.9675Z" fill="black"/>
<path d="M66.5322 0H50.7257C48.8583 0 47.3386 1.51968 47.3386 3.3871V12.4194C47.3386 14.2868 48.8583 15.8065 50.7257 15.8065H53.7414L52.5739 22.6156L63.4691 15.8065H66.5322C68.3996 15.8065 69.9193 14.2868 69.9193 12.4194V3.3871C69.9193 1.51968 68.3996 0 66.5322 0ZM67.6612 12.4194C67.6612 13.0415 67.1543 13.5484 66.5322 13.5484H62.821L55.6506 18.0295L56.4194 13.5484H50.7257C50.1036 13.5484 49.5967 13.0415 49.5967 12.4194V3.3871C49.5967 2.765 50.1036 2.25806 50.7257 2.25806H66.5322C67.1543 2.25806 67.6612 2.765 67.6612 3.3871V12.4194Z" fill="black"/>
<path d="M65.4031 4.51611H51.8547V6.77418H65.4031V4.51611Z" fill="black"/>
<path d="M60.887 9.03223H51.8547V11.2903H60.887V9.03223Z" fill="black"/>
<path d="M65.4031 9.03223H63.145V11.2903H65.4031V9.03223Z" fill="black"/>
<path d="M34.9193 3.38721C20.1674 3.38721 7.46016 13.5914 4.15662 27.8251L2.0171 24.2585L0.0808105 25.4203L4.04936 32.033L10.6621 28.0645L9.50033 26.1282L6.44065 27.964C9.64033 14.9429 21.3495 5.64527 34.9193 5.64527C37.8853 5.64527 40.8118 6.08559 43.6174 6.95495L44.2858 4.7985C41.2634 3.8614 38.1123 3.38721 34.9193 3.38721Z" fill="black"/>
<path d="M69.3705 24.9991L62.7578 21.0305L58.7904 27.6444L60.7266 28.8062L62.7025 25.5128C63.7423 28.5555 64.2741 31.7383 64.2741 35C64.2741 41.7144 61.9483 48.2786 57.7268 53.4823L59.4802 54.9049C64.0279 49.3004 66.5321 42.2304 66.5321 35C66.5321 31.5463 65.9755 28.1739 64.8905 24.9449L68.2088 26.9354L69.3705 24.9991Z" fill="black"/>
</g>
<defs>
<clipPath id="clip0">
<rect width="70" height="70" fill="white"/>
</clipPath>
</defs>
</svg>
