<svg width="96" height="96" viewBox="0 0 96 96" fill="none" xmlns="http://www.w3.org/2000/svg">
<g clip-path="url(#clip0)">
<path d="M10.5014 76.4821H7.50146V79.482H10.5014V76.4821Z" fill="#E31E24"/>
<path d="M67.3493 72.8107L65.8493 69.8108C65.6896 69.4949 65.4243 69.245 65.0994 69.1043L55.1397 64.7965L54.3383 62.3114C56.9329 60.2141 58.4996 56.7352 58.4996 52.4819V49.4819V40.4822C58.4996 40.0844 58.3413 39.703 58.0601 39.4218C55.2583 37.0515 51.6663 35.8234 47.9999 35.9824C44.3334 35.8234 40.7416 37.0515 37.9397 39.4218C37.6585 39.703 37.5002 40.0844 37.5002 40.4822V49.4819V52.4819C37.5002 56.7338 39.066 60.2121 41.6592 62.3096L40.8571 64.7965L30.9079 69.1043C30.583 69.245 30.3177 69.4949 30.1579 69.8108L28.658 72.8107C28.5541 73.019 28.5003 73.2485 28.5005 73.4812V95.9805H31.5004V73.8352L32.5954 71.6393L41.627 67.7293L46.4999 72.6022V80.981H49.4998V72.6022L54.3722 67.7298L63.4029 71.6393L64.4994 73.8352V95.9805H67.4993V73.4812C67.5019 73.2491 67.4505 73.0196 67.3493 72.8107ZM40.5001 41.1812C42.6992 39.6623 45.3288 38.8913 47.9999 38.9823C50.6711 38.8912 53.3005 39.6621 55.4996 41.1812V47.7654C54.7497 47.5682 53.9997 47.193 53.9997 46.482C53.9997 45.6537 53.3281 44.9821 52.4997 44.9821H43.5C42.6717 44.9821 42.0001 45.6537 42.0001 46.482C42.0001 47.193 41.2501 47.568 40.5001 47.7654V41.1812ZM48.0001 69.8603L43.7449 65.6051L44.3167 63.8309C45.4436 64.2544 46.6788 64.4815 47.9999 64.4815C49.3202 64.4815 50.5547 64.2546 51.6811 63.8316L52.2539 65.6064L48.0001 69.8603ZM47.9999 61.4816C42.4651 61.4816 40.5001 56.6337 40.5001 52.4819V50.8409C42.3036 50.669 43.8962 49.592 44.727 47.982H51.2728C52.1036 49.592 53.6961 50.669 55.4996 50.8409V52.4819C55.4996 56.6337 53.5347 61.4816 47.9999 61.4816Z" fill="#E31E24"/>
<path d="M39.0004 86.9817H36.0005V95.9814H39.0004V86.9817Z" fill="#E31E24"/>
<path d="M59.9999 86.9817H57V95.9814H59.9999V86.9817Z" fill="#E31E24"/>
<path d="M65.7097 23.0948L49.2102 0.595458C49.1421 0.51146 49.0654 0.434775 48.9813 0.366527C48.3127 -0.175518 47.3313 -0.0731464 46.7893 0.595458L30.2898 23.0948C30.1004 23.3526 29.9984 23.6644 29.9988 23.9844C29.9997 24.8128 30.6719 25.4836 31.5002 25.4827H37.5001V31.4825H40.5V23.9827C40.5 23.1544 39.8284 22.4828 39 22.4828H34.4611L47.9997 4.01985L61.5383 22.4828H56.9994C56.1711 22.4828 55.4995 23.1544 55.4995 23.9827V31.4825H58.4994V25.4827H64.4992C64.8193 25.4831 65.1309 25.3811 65.3889 25.1917C66.0565 24.7012 66.2002 23.7624 65.7097 23.0948Z" fill="#E31E24"/>
<path d="M95.7089 44.0941L79.2095 21.5948C79.1414 21.5108 79.0647 21.4341 78.9805 21.3659C78.3119 20.8238 77.3306 20.9262 76.7885 21.5948L60.289 44.0941C60.0997 44.3519 59.9977 44.6637 59.998 44.9838C59.999 45.8121 60.6712 46.483 61.4995 46.4822H67.4993V56.9819H70.4992V44.9823C70.4992 44.1539 69.8276 43.4823 68.9993 43.4823H64.4604L77.999 25.0194L91.5376 43.4823H86.9987H77.999V46.4822H85.4988V73.4814H88.4987V46.4822H94.4985C94.8185 46.4826 95.1301 46.3806 95.3881 46.1912C96.0558 45.7006 96.1994 44.7618 95.7089 44.0941Z" fill="#E31E24"/>
<path d="M35.7109 44.0941L19.2114 21.5948C19.1433 21.5108 19.0667 21.4341 18.9825 21.3659C18.3139 20.8238 17.3325 20.9262 16.7905 21.5948L0.290992 44.0941C0.101623 44.3519 -0.000373958 44.6637 1.03028e-06 44.9838C0.000938501 45.8121 0.673105 46.483 1.50145 46.4822H7.50127V73.4814H10.5012V46.4822H18.0009V43.4823H9.00122H4.46217L18.0008 25.0194L31.5395 43.4821H27.0007C26.1723 43.4821 25.5007 44.1537 25.5007 44.9821V56.9817H28.5006V46.482H34.5004C34.8205 46.4824 35.1321 46.3804 35.3901 46.191C36.0578 45.7006 36.2014 44.7618 35.7109 44.0941Z" fill="#E31E24"/>
<path d="M28.5009 59.9826H25.501V62.9825H28.5009V59.9826Z" fill="#E31E24"/>
<path d="M70.4994 59.9826H67.4995V62.9825H70.4994V59.9826Z" fill="#E31E24"/>
<path d="M88.4989 76.4821H85.499V79.482H88.4989V76.4821Z" fill="#E31E24"/>
</g>
<defs>
<clipPath id="clip0">
<rect width="96" height="96" fill="white"/>
</clipPath>
</defs>
</svg>
