<svg width="15" height="15" viewBox="0 0 15 15" fill="none" xmlns="http://www.w3.org/2000/svg">
<path d="M14.7633 0.603C14.7564 0.372859 14.5716 0.187922 14.3416 0.180942L8.40779 0.000239036C8.28671 -0.0031942 8.17021 0.0431544 8.08518 0.1291L0.761062 7.52863C-0.1365 8.43546 -0.1365 9.91084 0.761062 10.8177L4.22439 14.3166C4.66053 14.7573 5.24086 15 5.85827 15C6.47579 15 7.05613 14.7573 7.49226 14.3166L14.8165 6.91695C14.9003 6.83226 14.9457 6.7169 14.9422 6.59777L14.7633 0.603ZM9.13094 9.79892C9.04591 9.88383 8.93456 9.9264 8.8231 9.9264C8.71175 9.9264 8.60039 9.88395 8.51536 9.79892L8.32608 9.60952L8.01274 9.92286C7.92771 10.0078 7.81636 10.0502 7.70501 10.0502C7.59354 10.0502 7.48219 10.0078 7.39727 9.92274C7.22722 9.7528 7.22722 9.47722 7.39727 9.30728L8.23063 8.47392C8.38662 8.31793 8.3865 8.0641 8.23052 7.90812C8.07442 7.75202 7.82071 7.75191 7.66472 7.90789L7.45244 8.12006C7.45244 8.12018 7.45244 8.12018 7.45232 8.12018L7.24003 8.33258C6.99238 8.58023 6.66703 8.70406 6.34178 8.70406C6.01631 8.70406 5.69096 8.58023 5.44319 8.33235C5.20321 8.09237 5.07103 7.77342 5.07092 7.43399C5.07092 7.13999 5.17014 6.86133 5.35267 6.63611L5.15823 6.44156C4.98829 6.27161 4.98829 5.99604 5.15823 5.82609C5.32818 5.65615 5.60375 5.65615 5.7737 5.82609L5.9631 6.01549L6.16154 5.81694C6.33148 5.64699 6.60706 5.64699 6.77712 5.81694C6.94706 5.987 6.94706 6.26257 6.77712 6.43252L6.05843 7.15109C5.9829 7.22662 5.94135 7.32699 5.94135 7.43388C5.94135 7.54076 5.98301 7.64124 6.05866 7.71689C6.21475 7.87299 6.46859 7.87299 6.62445 7.71712L6.83686 7.50471C6.83686 7.50471 6.83686 7.5046 6.83697 7.5046L7.04914 7.29231C7.54456 6.79701 8.35057 6.79713 8.84599 7.29254C9.30924 7.75568 9.33934 8.4904 8.93651 8.98879L9.13094 9.18334C9.30089 9.3534 9.30089 9.62897 9.13094 9.79892ZM12.2101 4.61199C11.9556 4.8665 11.6212 4.99376 11.2869 4.99376C10.9525 4.99376 10.6181 4.8665 10.3636 4.61199C10.117 4.36537 9.98113 4.03749 9.98113 3.68868C9.98113 3.33997 10.117 3.0121 10.3636 2.76548C10.8726 2.25645 11.7011 2.25633 12.2101 2.76548C12.7192 3.27451 12.7192 4.10295 12.2101 4.61199Z" fill="#BDBDBD"/>
</svg>
