<svg width="56" height="56" viewBox="0 0 56 56" fill="none" xmlns="http://www.w3.org/2000/svg">
<circle cx="28" cy="28" r="28" fill="#E31E24"/>
<g clip-path="url(#clip0)">
<path d="M28.2947 37.8779L34.5447 31.6279C34.7074 31.4652 34.7074 31.2015 34.5447 31.0387C34.3819 30.876 34.1182 30.876 33.9555 31.0387L28.4167 36.5775V18.4167C28.4167 18.1864 28.2304 18 28.0001 18C27.7697 18 27.5834 18.1864 27.5834 18.4167V36.5775L22.0447 31.0387C21.8819 30.876 21.6182 30.876 21.4555 31.0387C21.3741 31.1201 21.3334 31.2268 21.3334 31.3334C21.3334 31.44 21.3741 31.5466 21.4555 31.628L27.7055 37.878C27.8682 38.0407 28.1319 38.0407 28.2947 37.8779Z" fill="white"/>
</g>
<defs>
<clipPath id="clip0">
<rect width="20" height="20" fill="white" transform="translate(38 18) rotate(90)"/>
</clipPath>
</defs>
</svg>
