<svg width="70" height="70" viewBox="0 0 70 70" fill="none" xmlns="http://www.w3.org/2000/svg">
<path d="M14.2188 11.1146L15.6177 15.3124H20.7812V13.1249H17.1948L14.2188 4.19775L10.7341 14.6496L9.42594 12.0312H5.46875V14.2187H8.07406L11.1409 20.3502L14.2188 11.1146Z" fill="black"/>
<path d="M63.4375 52.5C66.453 52.5 68.9062 50.0467 68.9062 47.0312V18.5938C68.9062 15.9359 66.9987 13.72 64.4809 13.23C63.9756 7.05797 58.8 2.1875 52.5 2.1875C46.235 2.1875 41.0791 7.00219 40.5245 13.125H25.1562C25.1562 6.49141 19.7586 1.09375 13.125 1.09375C6.49141 1.09375 1.09375 6.49141 1.09375 13.125C1.09375 16.9181 2.88969 20.4608 5.86687 22.7172C4.28531 24.1205 3.28125 26.1614 3.28125 28.4375V30.6239V31.7177V34.6445C3.28125 38.9856 5.88766 42.8509 9.84375 44.5036V47.5748C5.93359 49.77 3.28125 53.9525 3.28125 58.7464V68.9062H28.28V68.8811C29.4142 68.822 30.5156 68.5661 31.5547 68.0936L40.4534 64.0489C40.8002 63.8914 41.113 63.6836 41.3897 63.4375H45.9375C47.3616 63.4375 48.5647 62.5198 49.0175 61.25H65.625C67.4341 61.25 68.9062 59.7778 68.9062 57.9688C68.9062 56.1597 67.4341 54.6875 65.625 54.6875H59.0625C58.4588 54.6875 57.9688 54.1975 57.9688 53.5938V52.5H63.4375ZM63.4375 50.3125H25.69C23.8558 48.2344 21.3752 46.7556 18.5938 46.1945V44.5867C19.1395 44.4041 19.6427 44.1219 20.0856 43.75H66.7188V47.0312C66.7188 48.8403 65.2466 50.3125 63.4375 50.3125ZM43.75 54.6875H41.8206C39.5795 54.6875 37.4478 55.7266 36.0938 57.3956V52.5H44.8438V54.798C44.4905 54.7258 44.1241 54.6875 43.75 54.6875ZM29.3278 60.8377L28.77 56.9352C28.5414 55.3383 28.0153 53.8442 27.2573 52.5H33.9062V58.7563L29.3278 60.8377ZM14.8947 29.5302L15.6866 27.9475C15.8725 27.5745 16.2477 27.3427 16.6655 27.3427H22.9688C23.5725 27.3427 24.0625 27.8337 24.0625 28.4364C24.0625 29.0391 23.5725 29.5302 22.9688 29.5302H14.8947ZM52.5 4.375C57.9283 4.375 62.3438 8.79156 62.3438 14.2188C62.3438 19.6459 57.9283 24.0625 52.5 24.0625C47.0717 24.0625 42.6562 19.6459 42.6562 14.2188C42.6562 8.79156 47.0717 4.375 52.5 4.375ZM40.5245 15.3125C41.0791 21.4353 46.235 26.25 52.5 26.25C58.7038 26.25 63.8236 21.5294 64.4623 15.493C65.7683 15.9261 66.7188 17.1445 66.7188 18.5938V41.5625H21.5206C21.6869 41.0014 21.7656 40.4108 21.7044 39.8103L20.895 31.7177H22.9688C24.7778 31.7177 26.25 30.2455 26.25 28.4364C26.25 26.6273 24.7778 25.1552 22.9688 25.1552H20.6708C20.5187 24.4114 20.2005 23.7322 19.7794 23.1306C22.5083 21.3194 24.3469 18.5063 24.9331 15.3125H40.5245ZM3.28125 13.125C3.28125 7.69781 7.69672 3.28125 13.125 3.28125C18.5533 3.28125 22.9688 7.69781 22.9688 13.125C22.9688 16.6327 21.1214 19.8034 18.1322 21.5753C17.3075 21.0755 16.3461 20.7812 15.3136 20.7812H10.9375C9.84703 20.7812 8.81125 21.0142 7.87172 21.4266C5.03562 19.6273 3.28125 16.5047 3.28125 13.125ZM5.46875 28.4375C5.46875 25.422 7.92203 22.9688 10.9375 22.9688H15.3136C16.7398 22.9688 17.955 23.882 18.4056 25.1552H16.6644C15.4131 25.1552 14.2887 25.8497 13.7288 26.9686L12.448 29.5302H5.46875V28.4375ZM5.46875 34.6445V31.7177H8.46672C7.94281 32.527 7.65625 33.4666 7.65625 34.4531C7.65625 35.7831 8.19547 37.0858 9.13719 38.0275L9.84375 38.7341V42.0623C7.18156 40.5825 5.46875 37.7738 5.46875 34.6445ZM10.6837 36.4809C10.15 35.9472 9.84375 35.2078 9.84375 34.4531C9.84375 33.6875 10.1412 32.9678 10.6837 32.4253L11.3914 31.7177H18.6977L19.5289 40.0302C19.6011 40.7444 19.3506 41.4477 18.8409 41.9573C18.3969 42.4014 17.78 42.6573 17.1511 42.6573H14.2188V44.8448H16.4062V45.9528C16.3002 45.9495 16.1963 45.9375 16.0902 45.9375C14.6705 45.9375 13.3088 46.1792 12.0312 46.608V37.8284L10.6837 36.4809ZM30.6491 66.103C29.7511 66.512 28.7941 66.7188 27.8053 66.7188C24.745 66.7188 22.0981 64.7489 21.2198 61.8188L19.6427 56.5611L17.547 57.1889L19.1242 62.4466C19.6405 64.1692 20.638 65.6184 21.9231 66.7188H5.46875V58.7464C5.46875 52.8894 10.2331 48.125 16.0902 48.125C21.3413 48.125 25.8617 52.045 26.6033 57.2447L27.2519 61.7805L25.7972 62.4422L26.7028 64.4328L33.1789 61.4884L34.4597 64.3694L30.6491 66.103ZM39.5489 62.0572L36.4525 63.4648L35.1717 60.5828L38.2102 59.2014C38.4114 59.1106 38.6345 59.0625 38.9003 59.0625C39.7644 59.0625 40.4688 59.7669 40.4688 60.6309C40.4688 61.2434 40.1078 61.8034 39.5489 62.0572ZM45.9375 61.25H42.5994C42.6344 61.0466 42.6562 60.8409 42.6562 60.6309C42.6562 59.0373 41.6555 57.6822 40.2325 57.1375C40.7422 56.9723 41.2748 56.875 41.8206 56.875H43.75C45.5591 56.875 47.0312 58.3472 47.0312 60.1562C47.0312 60.76 46.5412 61.25 45.9375 61.25ZM59.0625 56.875H65.625C66.2288 56.875 66.7188 57.365 66.7188 57.9688C66.7188 58.5725 66.2288 59.0625 65.625 59.0625H49.1083C48.8381 57.7358 48.0736 56.5983 47.0312 55.8097V52.5H55.7812V53.5938C55.7812 55.4028 57.2534 56.875 59.0625 56.875Z" fill="black"/>
<path d="M62.3438 45.9375H64.5312V48.125H62.3438V45.9375Z" fill="black"/>
<path d="M53.5938 45.9375H55.7812V48.125H53.5938V45.9375Z" fill="black"/>
<path d="M57.9688 45.9375H60.1562V48.125H57.9688V45.9375Z" fill="black"/>
<path d="M45.9375 8.75H48.125V10.9375H45.9375V8.75Z" fill="black"/>
<path d="M50.3125 8.75H59.0625V10.9375H50.3125V8.75Z" fill="black"/>
<path d="M45.9375 13.125H48.125V15.3125H45.9375V13.125Z" fill="black"/>
<path d="M50.3125 13.125H59.0625V15.3125H50.3125V13.125Z" fill="black"/>
<path d="M45.9375 17.5H48.125V19.6875H45.9375V17.5Z" fill="black"/>
<path d="M50.3125 17.5H59.0625V19.6875H50.3125V17.5Z" fill="black"/>
<path d="M39.375 30.625H28.4375V39.375H39.375V30.625ZM37.1875 37.1875H30.625V32.8125H37.1875V37.1875Z" fill="black"/>
<path d="M28.4375 26.25H39.375V28.4375H28.4375V26.25Z" fill="black"/>
<path d="M28.4375 21.875H39.375V24.0625H28.4375V21.875Z" fill="black"/>
<path d="M28.4375 17.5H39.375V19.6875H28.4375V17.5Z" fill="black"/>
<path d="M41.5625 37.1875H43.75V39.375H41.5625V37.1875Z" fill="black"/>
<path d="M45.9375 37.1875H64.5312V39.375H45.9375V37.1875Z" fill="black"/>
<path d="M41.5625 32.8125H64.5312V35H41.5625V32.8125Z" fill="black"/>
<path d="M41.5625 28.4375H64.5312V30.625H41.5625V28.4375Z" fill="black"/>
</svg>
