<svg width="96" height="96" viewBox="0 0 96 96" fill="none" xmlns="http://www.w3.org/2000/svg">
<g clip-path="url(#clip0)">
<path d="M93.6587 86.6319H85.3903V33.8544C85.3903 32.5635 84.3399 31.5131 83.049 31.5131H77.7069C76.9311 31.5131 76.3022 32.142 76.3022 32.9179C76.3022 33.6937 76.9311 34.3226 77.7069 34.3226H82.5808V86.6319H69.237V34.3226H71.1013C71.8772 34.3226 72.5061 33.6937 72.5061 32.9179C72.5061 32.142 71.8772 31.5131 71.1013 31.5131H68.7688C67.4779 31.5131 66.4275 32.5635 66.4275 33.8544V86.6321H57.4817V51.6396C57.4817 50.3486 56.4313 49.2982 55.1404 49.2982H40.86C39.5691 49.2982 38.5187 50.3486 38.5187 51.6396V86.6319H29.5727V67.0039C29.5727 65.7129 28.5223 64.6626 27.2314 64.6626H12.9512C11.6602 64.6626 10.6099 65.7129 10.6099 67.0039V73.2861C10.6099 74.0619 11.2388 74.6908 12.0146 74.6908C12.7905 74.6908 13.4194 74.0619 13.4194 73.2861V67.4722H26.763V86.6321H13.4194V79.8187C13.4194 79.0429 12.7905 78.414 12.0146 78.414C11.2388 78.414 10.6099 79.0429 10.6099 79.8187V86.6321H2.34131C1.05038 86.6319 0 87.6823 0 88.9734V93.453C0 94.7439 1.05038 95.7943 2.34131 95.7943H93.6587C94.9496 95.7943 96 94.7439 96 93.453V88.9734C96 87.6823 94.9496 86.6319 93.6587 86.6319V86.6319ZM41.3282 52.1079H54.672V86.6321H41.3282V52.1079ZM93.1903 92.9848H2.80969V89.4418H12.0148H28.1681H39.9236H56.0769H67.8323H83.9856H93.1905V92.9848H93.1903Z" fill="#E31E24"/>
<path d="M11.6712 51.6473L10.8676 56.3327C10.6435 57.6392 11.1706 58.9346 12.2429 59.7137C12.8489 60.1539 13.5578 60.3778 14.2714 60.3778C14.8208 60.3778 15.373 60.2451 15.8834 59.9769L20.0911 57.7648L24.2987 59.9769C25.4717 60.5936 26.8666 60.4928 27.9392 59.7139C29.0116 58.9346 29.5386 57.639 29.3146 56.3327L28.5109 51.6473L31.915 48.3291C32.8641 47.4039 33.1994 46.0461 32.7899 44.7855C32.3802 43.5248 31.3111 42.6233 29.9993 42.4326L25.2949 41.7489L23.1912 37.4861C22.6045 36.2974 21.4167 35.5592 20.0911 35.5592C18.7656 35.5592 17.5778 36.2976 16.9913 37.4861L14.8876 41.7489L10.183 42.4326C8.87125 42.6233 7.80212 43.5246 7.39243 44.7855C6.98293 46.0463 7.318 47.4039 8.26712 48.3289L11.6712 51.6473ZM10.0645 45.6536C10.102 45.5385 10.2276 45.2653 10.5871 45.213L15.5063 44.4981C16.2869 44.385 16.9613 43.8949 17.3106 43.1874L19.5107 38.7296C19.6714 38.404 19.9701 38.3687 20.0911 38.3687C20.212 38.3687 20.5107 38.4038 20.6716 38.7296L22.8717 43.1873C23.2208 43.8947 23.8952 44.3848 24.6756 44.4981L29.5952 45.213C29.9547 45.2653 30.0803 45.5385 30.1178 45.6536C30.1553 45.7688 30.2142 46.0637 29.9539 46.317L26.3944 49.7869C25.8293 50.3372 25.5717 51.1303 25.7052 51.9077L26.5456 56.8074C26.6069 57.1654 26.3858 57.3696 26.2879 57.4406C26.1899 57.5117 25.9274 57.6591 25.6064 57.4898L21.2061 55.1764C20.857 54.9928 20.4739 54.9011 20.0911 54.9011C19.7082 54.9011 19.3251 54.993 18.976 55.1764L14.5757 57.4898C14.2542 57.6589 13.9921 57.5117 13.8942 57.4406C13.7963 57.3694 13.5752 57.1654 13.6366 56.8074L14.4769 51.9079C14.6104 51.1303 14.3526 50.3374 13.7881 49.7871L10.2282 46.3172C9.96812 46.0637 10.027 45.7688 10.0645 45.6536V45.6536Z" fill="#E31E24"/>
<path d="M39.5799 34.5553L38.7763 39.2409C38.5522 40.5473 39.0791 41.8427 40.1514 42.6218C40.7574 43.062 41.4664 43.2857 42.1802 43.2857C42.7296 43.2857 43.2817 43.1531 43.7921 42.885L47.9998 40.6729L52.2075 42.885C53.3807 43.5021 54.7757 43.401 55.8484 42.6218C56.9207 41.8427 57.4476 40.5471 57.2235 39.2409L56.4197 34.5553L59.8239 31.2371C60.7731 30.312 61.1081 28.9541 60.6986 27.6936C60.2891 26.4328 59.2198 25.5315 57.9079 25.3408L53.2037 24.6572L51.0997 20.3942C50.5131 19.2056 49.3252 18.4673 47.9998 18.4673C46.6744 18.4673 45.4866 19.2056 44.8999 20.3942L42.7961 24.6572L38.0916 25.3408C36.78 25.5315 35.7107 26.4328 35.301 27.6936C34.8913 28.9539 35.2264 30.312 36.1757 31.2373L39.5799 34.5553ZM37.9731 28.5617C38.0106 28.4466 38.1362 28.1736 38.4956 28.1213L43.4156 27.4063C44.196 27.2927 44.8701 26.8029 45.2192 26.0957L47.4193 21.6377C47.58 21.312 47.8787 21.2769 47.9996 21.2769C48.1206 21.2769 48.4192 21.312 48.5799 21.6377L50.7804 26.0963C51.1294 26.8031 51.8036 27.2927 52.5842 27.4063L57.5038 28.1213C57.8632 28.1736 57.9889 28.4469 58.0264 28.5619C58.0637 28.677 58.1226 28.9718 57.8625 29.2253L54.3026 32.6953C53.7381 33.2458 53.4806 34.0384 53.6137 34.8159L54.4541 39.7157C54.5154 40.0736 54.2944 40.2776 54.1965 40.3487C54.0986 40.4196 53.8361 40.5673 53.5147 40.3978L49.1147 38.0846C48.7657 37.9011 48.3827 37.8092 47.9996 37.8092C47.6167 37.8092 47.2337 37.9011 46.8846 38.0844L42.4843 40.3978C42.1626 40.5671 41.9004 40.4196 41.8027 40.3487C41.7049 40.2776 41.484 40.0736 41.5453 39.7157L42.3857 34.8159C42.519 34.0388 42.2616 33.246 41.6966 32.6951L38.1367 29.2254C37.8769 28.9718 37.9357 28.677 37.9731 28.5617V28.5617Z" fill="#E31E24"/>
<path d="M67.4888 16.2936L66.6851 20.979C66.4609 22.2853 66.9879 23.5809 68.0603 24.36C69.1328 25.1391 70.5274 25.2398 71.7009 24.6233L75.9086 22.4111L80.1163 24.6233C80.6267 24.8914 81.1789 25.0239 81.7284 25.0239C82.4423 25.0239 83.1512 24.8003 83.757 24.36C84.8295 23.5809 85.3564 22.2853 85.1321 20.979L84.3285 16.2936L87.7326 12.9754C88.6819 12.0503 89.0169 10.6924 88.6074 9.43201C88.1979 8.17126 87.1286 7.26976 85.8169 7.07907L81.1125 6.39526L79.0086 2.13244C78.4219 0.94388 77.2341 0.205505 75.9086 0.205505C74.5832 0.205505 73.3954 0.94388 72.8087 2.13244L70.7048 6.39526L66.0006 7.07907C64.6888 7.26957 63.6195 8.17107 63.2098 9.43182C62.8003 10.6922 63.1354 12.0503 64.0845 12.9754L67.4888 16.2936ZM65.8821 10.3001C65.9194 10.185 66.045 9.91182 66.4046 9.85951L71.3237 9.14457C72.1048 9.03132 72.7794 8.54138 73.1282 7.83394L75.3283 3.37613C75.4892 3.05044 75.7879 3.01538 75.9086 3.01538C76.0294 3.01538 76.3284 3.05044 76.4889 3.37613L78.6893 7.83413C79.0384 8.54138 79.713 9.03151 80.493 9.14457L85.4128 9.85951C85.7723 9.91182 85.8981 10.1852 85.9354 10.3001C85.9727 10.4153 86.0316 10.71 85.7715 10.9635L82.2114 14.4338C81.6471 14.9843 81.3894 15.7768 81.5226 16.5544L82.3629 21.4539C82.4243 21.8121 82.2032 22.0161 82.1053 22.0871C82.0076 22.1584 81.7451 22.3056 81.4236 22.1363L77.0235 19.8231C76.6744 19.6395 76.2913 19.5476 75.9084 19.5476C75.5254 19.5476 75.1425 19.6395 74.7936 19.8229L70.3933 22.1363C70.0719 22.3056 69.8094 22.158 69.7116 22.0871C69.6137 22.0159 69.3928 21.8121 69.4539 21.4539L70.2943 16.5548C70.4278 15.7774 70.1704 14.9846 69.6054 14.4336L66.0456 10.9635C65.7855 10.71 65.8446 10.4151 65.8821 10.3001V10.3001Z" fill="#E31E24"/>
</g>
<defs>
<clipPath id="clip0">
<rect width="96" height="96" fill="white"/>
</clipPath>
</defs>
</svg>
